<svg xmlns="http://www.w3.org/2000/svg" width="256" height="256" viewBox="0 0 256 256" version="1.1">
	<path d="M 116 14.945 C 101.714 16.909, 89.224 19.132, 86.500 20.196 C 84.850 20.840, 81.003 23.040, 77.951 25.084 C 74.900 27.128, 70.175 29.884, 67.451 31.209 C 49.622 39.878, 37.591 51.244, 29.566 67 C 28.025 70.025, 24.866 75.200, 22.545 78.500 C 12.754 92.422, 10.970 99.639, 10.682 126.500 C 10.487 144.724, 10.521 144.915, 16.538 159.500 C 18.353 163.900, 21.307 171.550, 23.101 176.500 C 27.242 187.920, 30.353 192.514, 40.884 202.757 C 55.339 216.816, 78.050 230.426, 95.468 235.466 C 110.117 239.706, 136.686 241.391, 150.566 238.961 C 161.491 237.049, 185.319 227.185, 195.647 220.299 C 220.951 203.428, 227.160 197.755, 233.722 185.512 C 235.495 182.205, 238.099 177.345, 239.509 174.711 C 242.410 169.293, 244.096 161.985, 246.561 144.137 C 248.370 131.036, 248.142 123.503, 245.630 113.431 C 244.817 110.169, 243.642 103.450, 243.021 98.500 C 241.029 82.640, 230.429 63.336, 215.544 48.462 C 205.792 38.718, 194.748 31.037, 184.865 27.124 C 180.814 25.520, 174.635 23.049, 171.134 21.633 C 157.629 16.170, 150.352 14.700, 135.500 14.437 C 127.800 14.301, 119.025 14.529, 116 14.945" stroke="none" fill="black" fill-rule="evenodd"/>
</svg>